<?xml version="1.0" standalone="no"?>
<svg xmlns:xlink="http://www.w3.org/1999/xlink" id="wave" style="transform:rotate(0deg); transition: 0.3s" viewBox="0 0 1440 490" version="1.1" xmlns="http://www.w3.org/2000/svg"><defs><linearGradient id="sw-gradient-0" x1="0" x2="0" y1="1" y2="0"><stop stop-color="rgba(119.54, 62, 243, 1)" offset="0%"/><stop stop-color="rgba(11, 255, 39.244, 1)" offset="100%"/></linearGradient></defs><path style="transform:translate(0, 0px); opacity:1" fill="url(#sw-gradient-0)" d="M0,343L18.5,310.3C36.9,278,74,212,111,171.5C147.7,131,185,114,222,122.5C258.5,131,295,163,332,155.2C369.2,147,406,98,443,122.5C480,147,517,245,554,261.3C590.8,278,628,212,665,155.2C701.5,98,738,49,775,65.3C812.3,82,849,163,886,171.5C923.1,180,960,114,997,81.7C1033.8,49,1071,49,1108,114.3C1144.6,180,1182,310,1218,326.7C1255.4,343,1292,245,1329,179.7C1366.2,114,1403,82,1440,57.2C1476.9,33,1514,16,1551,81.7C1587.7,147,1625,294,1662,343C1698.5,392,1735,343,1772,277.7C1809.2,212,1846,131,1883,155.2C1920,180,1957,310,1994,326.7C2030.8,343,2068,245,2105,204.2C2141.5,163,2178,180,2215,179.7C2252.3,180,2289,163,2326,171.5C2363.1,180,2400,212,2437,236.8C2473.8,261,2511,278,2548,261.3C2584.6,245,2622,196,2640,171.5L2658.5,147L2658.5,490L2640,490C2621.5,490,2585,490,2548,490C2510.8,490,2474,490,2437,490C2400,490,2363,490,2326,490C2289.2,490,2252,490,2215,490C2178.5,490,2142,490,2105,490C2067.7,490,2031,490,1994,490C1956.9,490,1920,490,1883,490C1846.2,490,1809,490,1772,490C1735.4,490,1698,490,1662,490C1624.6,490,1588,490,1551,490C1513.8,490,1477,490,1440,490C1403.1,490,1366,490,1329,490C1292.3,490,1255,490,1218,490C1181.5,490,1145,490,1108,490C1070.8,490,1034,490,997,490C960,490,923,490,886,490C849.2,490,812,490,775,490C738.5,490,702,490,665,490C627.7,490,591,490,554,490C516.9,490,480,490,443,490C406.2,490,369,490,332,490C295.4,490,258,490,222,490C184.6,490,148,490,111,490C73.8,490,37,490,18,490L0,490Z"/><defs><linearGradient id="sw-gradient-1" x1="0" x2="0" y1="1" y2="0"><stop stop-color="rgba(62, 231.349, 243, 1)" offset="0%"/><stop stop-color="rgba(11, 255, 245.907, 1)" offset="100%"/></linearGradient></defs><path style="transform:translate(0, 50px); opacity:0.9" fill="url(#sw-gradient-1)" d="M0,245L18.5,253.2C36.9,261,74,278,111,269.5C147.7,261,185,229,222,220.5C258.5,212,295,229,332,245C369.2,261,406,278,443,294C480,310,517,327,554,310.3C590.8,294,628,245,665,228.7C701.5,212,738,229,775,253.2C812.3,278,849,310,886,302.2C923.1,294,960,245,997,196C1033.8,147,1071,98,1108,106.2C1144.6,114,1182,180,1218,171.5C1255.4,163,1292,82,1329,98C1366.2,114,1403,229,1440,294C1476.9,359,1514,376,1551,392C1587.7,408,1625,425,1662,424.7C1698.5,425,1735,408,1772,351.2C1809.2,294,1846,196,1883,147C1920,98,1957,98,1994,114.3C2030.8,131,2068,163,2105,220.5C2141.5,278,2178,359,2215,359.3C2252.3,359,2289,278,2326,236.8C2363.1,196,2400,196,2437,212.3C2473.8,229,2511,261,2548,253.2C2584.6,245,2622,196,2640,171.5L2658.5,147L2658.5,490L2640,490C2621.5,490,2585,490,2548,490C2510.8,490,2474,490,2437,490C2400,490,2363,490,2326,490C2289.2,490,2252,490,2215,490C2178.5,490,2142,490,2105,490C2067.7,490,2031,490,1994,490C1956.9,490,1920,490,1883,490C1846.2,490,1809,490,1772,490C1735.4,490,1698,490,1662,490C1624.6,490,1588,490,1551,490C1513.8,490,1477,490,1440,490C1403.1,490,1366,490,1329,490C1292.3,490,1255,490,1218,490C1181.5,490,1145,490,1108,490C1070.8,490,1034,490,997,490C960,490,923,490,886,490C849.2,490,812,490,775,490C738.5,490,702,490,665,490C627.7,490,591,490,554,490C516.9,490,480,490,443,490C406.2,490,369,490,332,490C295.4,490,258,490,222,490C184.6,490,148,490,111,490C73.8,490,37,490,18,490L0,490Z"/><defs><linearGradient id="sw-gradient-2" x1="0" x2="0" y1="1" y2="0"><stop stop-color="rgba(62, 188.424, 243, 1)" offset="0%"/><stop stop-color="rgba(11, 24.365, 255, 1)" offset="100%"/></linearGradient></defs><path style="transform:translate(0, 100px); opacity:0.8" fill="url(#sw-gradient-2)" d="M0,343L18.5,359.3C36.9,376,74,408,111,400.2C147.7,392,185,343,222,277.7C258.5,212,295,131,332,147C369.2,163,406,278,443,310.3C480,343,517,294,554,277.7C590.8,261,628,278,665,236.8C701.5,196,738,98,775,122.5C812.3,147,849,294,886,359.3C923.1,425,960,408,997,392C1033.8,376,1071,359,1108,318.5C1144.6,278,1182,212,1218,212.3C1255.4,212,1292,278,1329,261.3C1366.2,245,1403,147,1440,130.7C1476.9,114,1514,180,1551,171.5C1587.7,163,1625,82,1662,57.2C1698.5,33,1735,65,1772,106.2C1809.2,147,1846,196,1883,236.8C1920,278,1957,310,1994,310.3C2030.8,310,2068,278,2105,285.8C2141.5,294,2178,343,2215,351.2C2252.3,359,2289,327,2326,269.5C2363.1,212,2400,131,2437,130.7C2473.8,131,2511,212,2548,277.7C2584.6,343,2622,392,2640,416.5L2658.5,441L2658.5,490L2640,490C2621.5,490,2585,490,2548,490C2510.8,490,2474,490,2437,490C2400,490,2363,490,2326,490C2289.2,490,2252,490,2215,490C2178.5,490,2142,490,2105,490C2067.7,490,2031,490,1994,490C1956.9,490,1920,490,1883,490C1846.2,490,1809,490,1772,490C1735.4,490,1698,490,1662,490C1624.6,490,1588,490,1551,490C1513.8,490,1477,490,1440,490C1403.1,490,1366,490,1329,490C1292.3,490,1255,490,1218,490C1181.5,490,1145,490,1108,490C1070.8,490,1034,490,997,490C960,490,923,490,886,490C849.2,490,812,490,775,490C738.5,490,702,490,665,490C627.7,490,591,490,554,490C516.9,490,480,490,443,490C406.2,490,369,490,332,490C295.4,490,258,490,222,490C184.6,490,148,490,111,490C73.8,490,37,490,18,490L0,490Z"/><defs><linearGradient id="sw-gradient-3" x1="0" x2="0" y1="1" y2="0"><stop stop-color="rgba(243, 62, 62, 1)" offset="0%"/><stop stop-color="rgba(255, 11, 11, 1)" offset="100%"/></linearGradient></defs><path style="transform:translate(0, 150px); opacity:0.7" fill="url(#sw-gradient-3)" d="M0,245L18.5,277.7C36.9,310,74,376,111,351.2C147.7,327,185,212,222,147C258.5,82,295,65,332,81.7C369.2,98,406,147,443,212.3C480,278,517,359,554,383.8C590.8,408,628,376,665,359.3C701.5,343,738,343,775,318.5C812.3,294,849,245,886,212.3C923.1,180,960,163,997,187.8C1033.8,212,1071,278,1108,261.3C1144.6,245,1182,147,1218,155.2C1255.4,163,1292,278,1329,310.3C1366.2,343,1403,294,1440,277.7C1476.9,261,1514,278,1551,269.5C1587.7,261,1625,229,1662,212.3C1698.5,196,1735,196,1772,204.2C1809.2,212,1846,229,1883,245C1920,261,1957,278,1994,253.2C2030.8,229,2068,163,2105,138.8C2141.5,114,2178,131,2215,179.7C2252.3,229,2289,310,2326,343C2363.1,376,2400,359,2437,302.2C2473.8,245,2511,147,2548,122.5C2584.6,98,2622,147,2640,171.5L2658.5,196L2658.5,490L2640,490C2621.5,490,2585,490,2548,490C2510.8,490,2474,490,2437,490C2400,490,2363,490,2326,490C2289.2,490,2252,490,2215,490C2178.5,490,2142,490,2105,490C2067.7,490,2031,490,1994,490C1956.9,490,1920,490,1883,490C1846.2,490,1809,490,1772,490C1735.4,490,1698,490,1662,490C1624.6,490,1588,490,1551,490C1513.8,490,1477,490,1440,490C1403.1,490,1366,490,1329,490C1292.3,490,1255,490,1218,490C1181.5,490,1145,490,1108,490C1070.8,490,1034,490,997,490C960,490,923,490,886,490C849.2,490,812,490,775,490C738.5,490,702,490,665,490C627.7,490,591,490,554,490C516.9,490,480,490,443,490C406.2,490,369,490,332,490C295.4,490,258,490,222,490C184.6,490,148,490,111,490C73.8,490,37,490,18,490L0,490Z"/></svg>